<svg xmlns="http://www.w3.org/2000/svg" viewBox="0 0 64 64" role="img" aria-label="Fantasy Tracker icon">
  <defs>
    <linearGradient id="g" x1="0" y1="0" x2="1" y2="1">
      <stop offset="0%" stop-color="#3B82F6" />
      <stop offset="100%" stop-color="#EC4899" />
    </linearGradient>
  </defs>
  <rect x="2" y="2" width="60" height="60" rx="14" fill="url(#g)" />
  <g
    fill="none"
    stroke="#F8FAFC"
    stroke-width="2"
    stroke-linecap="round"
    stroke-linejoin="round"
    transform="translate(8 8) scale(2)"
  >
    <path d="M6 9H4.5a2.5 2.5 0 0 1 0-5H6" />
    <path d="M18 9h1.5a2.5 2.5 0 0 0 0-5H18" />
    <path d="M4 22h16" />
    <path d="M10 14.66V17c0 .55-.47.98-.97 1.21C7.85 18.75 7 20.24 7 22" />
    <path d="M14 14.66V17c0 .55.47.98.97 1.21C16.15 18.75 17 20.24 17 22" />
    <path d="M18 2H6v7a6 6 0 0 0 12 0V2Z" />
  </g>
</svg>
